<?xml version="1.0" encoding="UTF-8"?>
<svg xmlns="http://www.w3.org/2000/svg" version="1.1" viewBox="0 0 28.3 28.3">
  <defs>
    <style>
      .cls-1 {
        fill: #fff;
      }
    </style>
  </defs>
  <!-- Generator: Adobe Illustrator 28.7.1, SVG Export Plug-In . SVG Version: 1.2.0 Build 142)  -->
  <g>
    <g id="Layer_1">
      <g id="Layer_1-2" data-name="Layer_1">
        <g>
          <path d="M14.5,28.3h-.6c-.4,0-.7,0-1.1-.1-.2-.1-.7,0-1-.2-1.7,0-3.1-1-4.6-1.7-.5-.2-1-.7-1.5-1-.5-.4-1-.9-1.5-1.4-1.1-1.2-2.1-2.6-2.9-4.7-.4-.4-.4-.9-.5-1.2-.1-.4-.2-.9-.4-1.4,0-.5-.1-1.1-.1-1.7v-1.6c0-.9.2-1.6.4-2.4.2-.7.5-1.5.7-2.2.4-1,.9-1.9,1.5-2.7.7-.9,1.4-1.9,2.4-2.5.5-.4.9-.7,1.4-1,.9-.6,1.9-1,2.9-1.4.7-.2,1.6-.4,2.2-.6,1.1,0,2.2-.4,3.4-.1.5,0,1,0,1.5.1s1,.2,1.5.4c.5.1,1,.2,1.4.4.5.1.9.4,1.4.6.7.5,1.6,1,2.2,1.6.2.2.6.5.9.7,1.4,1.4,2.4,2.9,3.1,4.6.4.9.5,1.6.7,2.5.1.6.1,1.2.2,1.9v2c-.1,1-.2,2-.6,3-.4,1.1-.9,2.1-1.4,3.1-.2.5-.7,1-1,1.6-.4.6-1,1.2-1.6,1.7-.7.7-1.6,1.2-2.5,1.9s-1.9,1-3,1.2c-.4,0-.7.1-1.1.2-.2,0-.5,0-.7.1-.2,0-.5,0-.6.1h-1.5l.5.2ZM12,5.2v.5h-.4c0,.1,0,.2-.1.4-.2-.2-.4-.5-.6-.6-.5.1-1.1.2-1.6.6.1-.5.2-.7,0-1.1-.2.2-.6,0-.7.5-.2,0-.6.2-.7.5,0,0,0,.2.1.2-.1,0-.2.2-.5.4.4,0,.5.2.5.7-.1-.2-.2-.4-.4-.6,0,.2-.2.4-.2.5l.2.2c0,.1-.1.4-.2.5,0,0-.2,0-.4.1.2-.5.1-1.1,0-1.2,0,0-.1.1-.2.2,0,.1.2.4.4.6-.2,0-.5-.1-.6-.1s-.2,0-.4.1c-.1,0-.4,0-.5.2,0,.1-.1.2-.4.4v1.5c0,.4.1.7.1,1.2,0,.7.1,1.4.5,2.1v.2h.4c0,.1.2.4.4.6.2-.4.4,0,.6,0h.6c.1.2.4.5.5.6h.1c.2.5.5,1,.6,1.5h0v-.6l.9-.9h.5c.1.2.2.4.5.6h.2v.4c.5-.2.6.6,1.1.2v-.5c-.1-.2-.2-.5-.2-.7.7,0,1.2-.2,1.4-1-.1-.2-.2-.5-.5-1,0,0,.2,0,.5-.2h-.6c0-.1.2-.4.4-.5l.7.7s.1,0,.4.1c-.1-.4-.2-.6-.4-1,.2-.1.4-.2.5-.4.4-.6.5-1.2.4-1.9h-.7l-.2-.2c0-.4.2-.6.4-.9.4,0,.6-.2,1-.2v-.7c.1,0,.2.1.4.2,0-.1,0-.4.1-.5.2.7,0,1.2,0,1.7.2.4.4.6.6.9,0-.4,0-.6.1-.9,0-.2-.2-.6-.4-.9.1-.1.2-.4.4-.5h.1c.1-.4.2-.6.4-1-.4-.1-.2-.6-.5-.9h.6v-.2c-.1,0-.1-.2-.1-.5-.1,0-.2.1-.4.2-.6-.2-1.1,0-1.6,0,0,0,.1.1.2.2-.2.2-.6,0-1,.2,0-.1-.2-.2-.4-.5-.4.4-.7.1-1.1,0h-.1c0,.1-.2.1-.4-.1h-.1ZM19,7c-.4.4-.6.6-1,.9,0,0,.1.2.2.2,0,0,.2.1.4.2,0,0,.1.2.2.4,0-.2.2-.4.4-.5,0,0,.1,0,.1.1h.2c.4-.1.6-.1.9.4.2.5.2,1,.5,1.4v.4s.2.1.2.2c-.2.1,0,.5-.1.6-.2.4-.1.7,0,1.2,0,.2.5.9.6,1,.2.5.7.7.7,1.4.6.2,1.2.4,1.7.6v.4c0-.1.1-.2.2-.5-.1,0-.4-.2-.5-.4,0-.1,0-.4.1-.6-.2.2-.5.4-.7.5,0,0-.1-.1-.2-.2v-1c.4,0,.7-.2,1.2-.4,0,.2.2.5.4.9v-.9c.2-.2.6-.5.5-.9.2-.2.5-.5.7-.7h.6c-.2-.2-.5-.4-.4-.7,0,0,.2,0,.4.1,0,0,.1-.2.2-.2v-.4s-.2-.1-.2-.2v-.6s-.1.1-.2.1c0-.2-.2-.5-.2-.6h-.4v.9c-.1.2-.4.5-.5.7v-.4c-.2-.4-.9-.5-.9-1,.2-.2.5-.5.6-.6,0,0,.1,0,.2.1,0,0,.2,0,.2-.1,0,0-.1-.1-.1-.2h.4v-.6c.4,0,.4.4.6.6-.1.1-.2.4-.4.5.1,0,.4.2.6.5,0-.2.2-.4.2-.6s-.2-.2-.4-.4h0c-.2-.4-.4-.7-.6-1.1-.1,0-.4,0-.5-.1l-.2.2c0,.1.1.2.2.5v.2s-.1-.1-.4-.2c0-.4,0-.6.1-1.1,0,0-.1,0-.2.1h-.1c0-.1-.1,0-.2.1,0,.1.1.2.2.4,0,.1-.2.4-.2.5h-.5c.1-.1.2-.2.2-.4v-.6c-.2-.4-.5-.6-.9-.9-.1,0-.4.1-.5.2v.5c.1,0,.2-.1.2-.2,0,.1.1.2.2.5,0,0-.2.1-.2.2-.2-.2-.4-.4-.5-.5h-.9c-.4-.4-.9-.6-1.2-1-.5,0-1,0-1.4.4v.6h-.6v.5h.2l.2-.4ZM25.3,22.4c.1-.4.2-.9.5-1.4,0,0,.4-.2.5-.5,0,0,0-.1-.1-.2.5-.1.6-.6.7-1.1l.5-.5c0-.4.1-.6.2-.9s.2-.5.1-.7c-.2,0-.5-.2-.7-.2v-.4c-.4-.2-.6-.5-1-.7h-.1c-.4,0-.6,0-.9-.1-.1.5-.4.9-.5,1.5,0,.5.2,1.1.9,1.5v1.7c-.2.7,0,1.4,0,2h-.1ZM16.7,19.9c-.5-.4-.6-1-.9-1.6,0,.4,0,.6-.1.9-.2,0-.4-.2-.6-.4,0,0,.1-.2.2-.4h-.6v.2h-.5c-.2.6-.9.5-1.2.9v1.5c.6-.2,1.1-.5,1.7-.4,0,0,.1.1.2.2,0,0,.1,0,.2-.2v.9c.2,0,.5.1.6.1s.2,0,.4-.1c0-.6.7-1,.7-1.7h-.2Z"/>
          <path class="cls-1" d="M12,5.2c.1,0,.2.1.4.2h.1c.4-.1.7.2,1.1-.1.1.1.2.2.4.5.2-.4.6,0,1-.2l-.2-.2h1.6s.1,0,.4-.2v.5s0,.1.1.2h-.6c.2.2,0,.6.5.9,0,.4-.2.6-.4,1h-.1c0,.1-.2.2-.4.5,0,.2.2.6.4.9,0,.2,0,.5-.1.9-.2-.2-.4-.5-.6-.9,0-.5.4-1.1,0-1.7,0,.2,0,.4-.1.5,0,0-.2,0-.4-.2v.7c-.2,0-.6.1-1,.2,0,.2-.2.6-.4.9l.2.2h.7c.1.7,0,1.2-.4,1.9,0,0-.2.1-.5.4,0,.2.2.6.4,1-.1,0-.2,0-.4-.1l-.7-.7c-.1.2-.2.4-.4.5h.6c-.2.1-.4.2-.5.2.1.4.4.6.5,1-.2.6-.7,1-1.4,1,0,.2,0,.5.2.7v.5c-.5.4-.6-.5-1.1-.2v-.5s-.1.1-.2.1c-.1-.2-.2-.4-.5-.6h-.5l-.9.9v.6h0c-.2-.5-.5-1-.6-1.5h-.1c-.1-.2-.2-.4-.5-.6h-.6c-.2,0-.4-.4-.6,0-.1-.2-.2-.4-.4-.6h-.4v-.2c-.4-.6-.6-1.2-.5-2.1,0-.4,0-.7-.1-1.2v-1.5c.2,0,.2-.1.4-.4,0,0,.4,0,.5-.2.1,0,.2-.1.4-.1s.4,0,.6.1c-.1-.2-.2-.4-.4-.6l.2-.2c.2,0,.4.6,0,1.2.1,0,.2,0,.4-.1,0-.1.2-.2.2-.5,0,0-.1-.1-.2-.2,0-.1.1-.2.2-.5,0,.1.2.2.4.6,0-.5-.2-.6-.5-.7.2-.1.4-.2.5-.4,0,0,0-.1-.1-.2.1-.2.5-.4.7-.5,0-.4.5-.2.7-.5.4.2.2.6,0,1.1.5-.4,1.1-.4,1.6-.6l.6.6q0-.2.1-.4h.4v-.5h.1Z"/>
          <path class="cls-1" d="M19,7h-.2v-.5h.6v-.6c.4-.2.9-.4,1.4-.4.4.4.9.6,1.2,1h.9c.1.1.2.2.5.5l.2-.2c0-.1-.1-.2-.2-.5l-.2.2v-.5c0-.1.2-.2.5-.2.2.4.5.6.9.9v.6s-.1.1-.2.4h.5c0-.1.1-.2.2-.5,0,0-.1-.2-.2-.4l.2-.2h.1c0,.1.1.1.2,0,0,.4,0,.7-.1,1.1.1,0,.2.2.4.2v-.2c0-.1-.1-.4-.2-.5l.2-.2c.2,0,.4,0,.5.1.1.4.4.7.6,1.1h0c0,.1.2.2.4.4,0,.2-.2.4-.2.6-.2-.1-.5-.4-.6-.5.1-.1.2-.4.4-.5-.1-.2-.1-.6-.6-.6v.6h-.4v.2c.1,0,0,0-.1.1,0,0-.1,0-.2-.1-.2.2-.5.5-.6.6,0,.5.6.6.9,1v.4c.1-.2.2-.4.5-.7v-.9h.4c0,.2.2.4.2.6h.2v.5s.2.1.2.2v.4s-.1.2-.2.2-.2-.1-.4-.1c-.2.4,0,.5.4.7h-.6c-.2.2-.5.5-.7.7,0,.4-.2.6-.5.9v.9c-.1-.4-.2-.5-.4-.9-.5.1-.9.2-1.2.4v1s.1.1.2.2c.2-.1.5-.4.7-.5,0,.2,0,.4-.1.6.1,0,.4.2.5.4,0,.1-.1.4-.2.5v-.4c-.5-.2-1.1-.4-1.7-.6,0-.6-.5-.9-.7-1.4,0-.1-.5-.7-.6-1-.1-.4-.2-.7,0-1.2,0-.1,0-.5.1-.6,0,0-.2-.1-.2-.2s.1-.4,0-.4c-.2-.5-.2-1-.5-1.4-.1-.4-.5-.5-.9-.5,0,0-.1,0-.2.1h-.1s-.2.2-.4.4c0,0-.1-.2-.2-.4,0,0-.2-.1-.4-.2,0,0-.1-.2-.2-.2.2-.2.6-.5,1-.9h0l-.2.4Z"/>
          <path class="cls-1" d="M25.3,22.4c0-.6-.1-1.4,0-2,.1-.5,0-1.1,0-1.7-.6-.4-.9-1-.9-1.5.2-.6.4-1,.5-1.5.2,0,.6,0,.9.1h.1c.4.2.6.5,1,.7v.4c.2,0,.5.1.7.2,0,.2,0,.5-.1.7-.1.2-.1.5-.2.9l-.5.5c-.1.5-.1,1-.7,1.1v.2c-.1.2-.4.4-.4.5-.2.6-.4,1-.5,1.4h.1Z"/>
          <path class="cls-1" d="M16.7,19.9c0,.7-.6,1.1-.7,1.7,0,0-.2,0-.4.1-.1,0-.4,0-.6-.1v-.9s-.1.1-.2.2c0,0-.1-.2-.2-.2-.7-.1-1.2,0-1.7.4v-1.5c.4-.4,1-.2,1.2-.9h.5v-.2h.6c0,.1-.1.2-.2.4.2,0,.4.2.6.4,0-.2,0-.5.1-.9.2.6.5,1.2.9,1.6h.2Z"/>
        </g>
      </g>
    </g>
  </g>
</svg>