<?xml version="1.0" encoding="UTF-8"?>
<svg xmlns="http://www.w3.org/2000/svg" version="1.1" viewBox="0 0 101 26">
  <defs>
    <style>
      .cls-1 {
        fill: #fff;
      }
    </style>
  </defs>
  <!-- Generator: Adobe Illustrator 28.7.1, SVG Export Plug-In . SVG Version: 1.2.0 Build 142)  -->
  <g>
    <g id="Layer_1">
      <g>
        <path d="M14.5,23.8c-.2,0-.3,0-.5,0-.3,0-.6,0-.9-.1-.2-.1-.6,0-.8-.2-1.4,0-2.5-.8-3.7-1.4-.4-.2-.8-.6-1.2-.8-.4-.3-.8-.7-1.2-1.1-.9-1-1.7-2.1-2.3-3.8-.3-.3-.3-.7-.4-1-.1-.3-.2-.7-.3-1.1,0-.4-.1-.9-.1-1.4,0-.4,0-.9,0-1.3,0-.7.2-1.3.3-1.9.2-.6.4-1.2.6-1.8.3-.8.7-1.5,1.2-2.2.6-.7,1.1-1.5,1.9-2,.4-.3.7-.6,1.1-.8.7-.5,1.5-.8,2.3-1.1.6-.2,1.3-.3,1.8-.5.9,0,1.8-.3,2.7-.1.4,0,.8,0,1.2.1.4.1.8.2,1.2.3.4.1.8.2,1.1.3.4.1.7.3,1.1.5.6.4,1.3.8,1.8,1.3.2.2.5.4.7.6,1.1,1.1,1.9,2.3,2.5,3.7.3.7.4,1.3.6,2,.1.5.1,1,.2,1.5,0,.5,0,1.1,0,1.6-.1.8-.2,1.6-.5,2.4-.3.9-.7,1.7-1.1,2.5-.2.4-.6.8-.8,1.3-.3.5-.8,1-1.3,1.4-.6.6-1.3,1-2,1.5-.7.5-1.5.8-2.4,1-.3,0-.6.1-.9.2-.2,0-.4,0-.6.1-.2,0-.4,0-.5.1h-1.2ZM12.5,5.3c0,.2,0,.3,0,.4-.1,0-.2,0-.3,0,0,.1,0,.2-.1.3-.2-.2-.3-.4-.5-.5-.4.1-.9.2-1.3.5.1-.4.2-.6,0-.9-.2.2-.5,0-.6.4-.2,0-.5.2-.6.4,0,0,0,.2.1.2-.1,0-.2.2-.4.3.3,0,.4.2.4.6-.1-.2-.2-.3-.3-.5,0,.2-.2.3-.2.4,0,0,.2.2.2.2,0,.1-.1.3-.2.4,0,0-.2,0-.3.1.2-.4.1-.9,0-1,0,0-.1.1-.2.2,0,.1.2.3.3.5-.2,0-.4-.1-.5-.1-.1,0-.2,0-.3.1-.1,0-.3,0-.4.2,0,.1-.1.2-.3.3v.3c0,.3,0,.6,0,.9,0,.3.1.6.1,1,0,.6.1,1.1.4,1.7,0,0,0,.1,0,.2h.3c0,.1.2.3.3.5.2-.3.3,0,.5,0,.2,0,.3,0,.5,0,.1.2.3.4.4.5,0,0,0,0,.1,0,.2.4.4.8.5,1.2,0,0,0,0,0,0v-.5c.3-.3.4-.4.7-.7h.4c.1.2.2.3.4.5,0,0,0,0,.2-.1,0,.1,0,.3,0,.4.4-.2.5.5.9.2v-.4c-.1-.2-.2-.4-.2-.6.6,0,1-.2,1.1-.8-.1-.2-.2-.4-.4-.8,0,0,.2,0,.4-.2-.2,0-.4,0-.5,0,0-.1.2-.3.3-.4.2.2.4.4.6.6,0,0,.1,0,.3.1-.1-.3-.2-.5-.3-.8.2-.1.3-.2.4-.3.3-.5.4-1,.3-1.5h-.6l-.2-.2c0-.3.2-.5.3-.7.3,0,.5-.2.8-.2,0-.2,0-.3,0-.6.1,0,.2.1.3.2,0-.1,0-.3.1-.4.2.6,0,1,0,1.4.2.3.3.5.5.7,0-.3,0-.5.1-.7,0-.2-.2-.5-.3-.7.1-.1.2-.3.3-.4,0,0,0,0,.1,0,.1-.3.2-.5.3-.8-.3-.1-.2-.5-.4-.7.2,0,.4,0,.5,0,0,0-.1-.2-.1-.2,0,0,0-.2,0-.4-.1,0-.2.1-.3.2-.5-.2-.9,0-1.3,0,0,0,.1.1.2.2-.2.2-.5,0-.8.2,0-.1-.2-.2-.3-.4-.3.3-.6.1-.9,0,0,0,0,0-.1.1,0,0-.2,0-.3-.2h0ZM18.1,6.7c-.3.3-.5.5-.8.7,0,0,.1.2.2.2,0,0,.2.1.3.2,0,0,.1.2.2.3,0-.2.2-.3.3-.4,0,0,.1,0,.1.1,0,0,.2-.1.2-.1.3,0,.5,0,.7.4.2.4.2.8.4,1.1,0,0,0,.2,0,.3,0,0,.2.1.2.2-.2.1,0,.4-.1.5-.2.3-.1.6,0,1,0,.2.4.7.5.8.2.4.6.6.6,1.1.5.2,1,.3,1.4.5,0,.1,0,.2,0,.3,0-.1.1-.2.2-.4-.1,0-.3-.2-.4-.3,0-.1,0-.3.1-.5-.2.2-.4.3-.6.4,0,0-.1-.1-.2-.2v-.8c.3,0,.6-.2,1-.3,0,.2.2.4.3.7v-.7c.2-.2.5-.4.4-.7.2-.2.4-.4.6-.6h.5c-.2-.2-.4-.3-.3-.6,0,0,.2,0,.3.1,0,0,.1-.2.2-.2v-.3c0,0-.2-.1-.2-.2,0-.2,0-.4,0-.5,0,0-.1.1-.2.1,0-.2-.2-.4-.2-.5h-.3v.7c-.1.2-.3.4-.4.6v-.3c-.2-.3-.7-.4-.7-.8.2-.2.4-.4.5-.5,0,0,.1,0,.2.1,0,0,.2,0,.2-.1,0,0-.1-.1-.1-.2.1,0,.2,0,.3,0,0-.1,0-.2,0-.3,0,0,0-.1,0-.2.3,0,.3.3.5.5-.1.1-.2.3-.3.4.1,0,.3.2.5.4,0-.2.2-.3.2-.5,0-.1-.2-.2-.3-.3,0,0,0,0,0,0-.2-.3-.3-.6-.5-.9-.1,0-.3,0-.4-.1,0,0,0,0-.2.2,0,.1.1.2.2.4,0,0,0,.1,0,.2,0,0-.1-.1-.3-.2,0-.3,0-.5.1-.9,0,0-.1,0-.2.1,0,0,0,0-.1-.1,0,0-.1.1-.2.2,0,.1.1.2.2.3,0,.1-.2.3-.2.4-.1,0-.2,0-.4,0,.1-.1.2-.2.2-.3,0-.2,0-.4,0-.5-.2-.3-.4-.5-.7-.7-.1,0-.3.1-.4.2,0,0,0,.2,0,.4.1,0,.2-.1.2-.2,0,.1.1.2.2.4,0,0-.2.1-.2.2-.2-.2-.3-.3-.4-.4h-.7c-.3-.3-.7-.5-1-.8-.4,0-.8,0-1.1.3,0,.2,0,.4,0,.5-.2,0-.3,0-.5,0v.4s0,0,.1,0c0,0,0,0,.1,0h0ZM23.2,19.1c.1-.3.2-.7.4-1.1,0,0,.3-.2.4-.4,0,0,0-.1-.1-.2.4-.1.5-.5.6-.9.1-.1.3-.3.4-.4,0-.3.1-.5.2-.7.1-.2.2-.4.1-.6-.2,0-.4-.2-.6-.2v-.3c-.3-.2-.5-.4-.8-.6,0,0,0,0-.1,0-.3,0-.5,0-.7-.1-.1.4-.3.7-.4,1.2,0,.4.2.9.7,1.2,0,.5,0,1,0,1.4-.2.6,0,1.1,0,1.6h0ZM16.3,17.1c-.4-.3-.5-.8-.7-1.3,0,.3,0,.5-.1.7-.2,0-.3-.2-.5-.3,0,0,.1-.2.2-.3h-.5c0,0,0,.2,0,.2h-.4c-.2.5-.7.4-1,.7v1.2c.5-.2.9-.4,1.4-.3,0,0,.1.1.2.2,0,0,.1,0,.2-.2v.7c.2,0,.4.1.5.1.1,0,.2,0,.3-.1,0-.5.6-.8.6-1.4h0Z"/>
        <path d="M84.6,20V5h.7c1.8,0,3.5,0,5.3,0,1.6,0,3.1.6,4.4,1.5.8.6,1.4,1.3,2,2.2.4.8.6,1.6.9,2.4,0,0,0,.1,0,.2,0,.3,0,.6.1.9,0,.2,0,.6,0,.8,0,.1,0,.3,0,.4,0,.7-.2,1.4-.5,2-.4,1.1-1.1,2-2,2.8-.6.5-1.3.9-2,1.2-.4,0-.6.4-1,.3-.2.3-.6,0-.9.2-.3.1-.7,0-1.1,0-1,.2-1.9,0-2.9.1-1,0-1.9,0-2.9,0h0ZM86.7,6.9v11.2c1.2,0,2.3,0,3.4,0,.8,0,1.5-.1,2.2-.4,1.5-.6,2.5-1.7,3-3.3,0-.2.2-.4.1-.7,0-.2.2-.4.1-.6,0-.2,0-.5,0-.7,0-.9-.3-1.7-.6-2.6-.4-.9-1.1-1.5-1.9-2.1-.8-.5-1.7-.7-2.7-.8-1.2,0-2.5,0-3.8,0h0Z"/>
        <path d="M57.3,12.3v.5c0,1.5-.5,2.8-1.3,4-.6.9-1.4,1.6-2.3,2.2-.4.2-.8.4-1.2.6-.4.2-.8.2-1.2.4,0,0,0,0,0,0-.7,0-1.3.2-2,.1-.3,0-.7-.2-1-.2-.3,0-.6,0-.9-.2-.3-.1-.6-.2-.9-.3-.7-.3-1.3-.7-1.9-1.2-.6-.4-1-1-1.4-1.6-.4-.7-.7-1.4-1-2.2-.3-1.1-.3-2.1-.2-3.2,0-.6.3-1.2.5-1.7.2-.6.5-1.1.8-1.6.9-1.3,2-2.2,3.5-2.8.6-.3,1.3-.5,2-.5.3,0,.6-.2.9-.1.5,0,.9.2,1.3.2s.8.1,1.2.3c.4.2.8.2,1.2.5.4.3.8.6,1.3.9.5.3.8.8,1.2,1.2.3.4.6.9.8,1.3.3.5.4,1.1.6,1.7.2.5.1,1.1.1,1.6h0ZM49.4,18.3c.5,0,.8,0,1.1-.1.7,0,1.2-.3,1.8-.5.7-.3,1.2-.8,1.7-1.4.8-1.1,1.2-2.6,1.2-3.9,0-.3,0-.5-.1-.8,0-.3,0-.6-.2-.9-.4-1.3-1.4-2.6-2.6-3.2-.7-.4-1.6-.6-2.4-.7-.5,0-1.1,0-1.6.2-.7.2-1.3.5-1.8.9-.6.4-1,.9-1.4,1.5-.6,1-.9,2.1-1,3.3,0,.4.1.7.1,1,0,.5.2,1,.4,1.4.4.9.9,1.6,1.7,2.3,1,.8,2.1,1.1,3.2,1.2h0Z"/>
        <path d="M58.6,5h10.9v1.9h-8.8v4.6h7.9v1.9h-7.8c0,.6-.1,3.2,0,4.7h8.9v1.9c0,0,0,0-.2.2h-10.9V5h0Z"/>
        <path d="M82.4,16.2c.5.5.9.9,1.3,1.3-.7.9-1.6,1.5-2.6,2-.9.4-1.8.7-2.7.7-.4,0-.9,0-1.3,0-.9,0-1.7-.2-2.4-.6-.4-.2-.7-.4-1.1-.6-.5-.3-.8-.7-1.2-1.1-.6-.6-1.1-1.3-1.4-2.1-.2-.6-.4-1.2-.5-1.8-.2-.6-.1-1.3-.1-1.9,0-1.1.3-2.2.8-3.2.5-1,1.1-1.8,1.8-2.5.7-.7,1.6-1.1,2.5-1.5.6,0,1.1-.3,1.8-.3.4,0,.9,0,1.3,0,1.5,0,2.8.5,4,1.3.2.2.5.4.7.6.1.1.3.2.5.4-.5.5-.9,1.1-1.4,1.6-.6-.7-1.4-1.1-2.2-1.6-.3-.2-.7-.1-.9-.4-.5,0-1.1-.2-1.6-.1-.6.1-1.3.2-1.9.5-.5.2-.9.5-1.3.9-.6.6-1.1,1.2-1.4,2-.2.4-.3.9-.4,1.3-.1.5,0,1-.1,1.6,0,.4.1.7.2,1.1,0,.3.2.6.3.9.3.9.9,1.6,1.6,2.2.7.6,1.5,1.1,2.5,1.1.3.2.7.1,1.1.1,1.1,0,2.2-.4,3.1-1,.3-.2.5-.4.8-.6.2-.1.4-.3.6-.4h0Z"/>
        <path d="M27.4,6.7V1.4c.7,1,1.3,2,1.9,3,.4.7.8,1.4,1.3,2.2.3.6.7,1.1,1,1.7.2.3.4.7.6,1,.3.4.4.9.4,1.5,0,1.5,0,3,0,4.5-1.8,2.9-3.5,5.7-5.3,8.5,0,0,0,0,0,0,0,0,0,0,0,0v-5.2c.7-1,1.3-2,1.9-3,.4-.7.8-1.4,1.3-2.2.2-.3.5-.6.4-.9-1.2-1.9-2.3-3.8-3.5-5.6h0Z"/>
        <path d="M38.1,9.7c0,0,0,0-.1.2,0,0,.1,0,.1.2,0,1.7,0,3.5,0,5.2-1.7,2.8-3.4,5.5-5.2,8.4,0-1,0-1.9,0-2.8,0-.9,0-1.7,0-2.6,1.2-2,2.4-3.9,3.6-5.9-.5-.8-.9-1.5-1.4-2.2-.4-.6-.8-1.3-1.2-1.9-.3-.4-.5-.9-.8-1.3-.2-.3-.3-.7-.3-1,0-1.5,0-3,0-4.7.4.7.7,1.2,1.1,1.7.5.8,1,1.7,1.5,2.5.4.7.8,1.4,1.3,2,.4.6.7,1.1,1.1,1.7,0,.1.2.3.3.5h0Z"/>
        <path class="cls-1" d="M12.5,5.3c.1,0,.2.1.3.2,0,0,0,0,.1-.1.3,0,.6.3.9,0,.1.1.2.2.3.4.2-.3.5,0,.8-.2,0,0,0,0-.2-.2.5,0,.9,0,1.3,0,0,0,.1,0,.3-.2,0,.2,0,.3,0,.4,0,0,0,.1.1.2-.2,0-.3,0-.5,0,.2.2,0,.5.4.7,0,.3-.2.5-.3.8,0,0,0,0-.1,0,0,.1-.2.2-.3.4,0,.2.2.5.3.7,0,.2,0,.4-.1.7-.2-.2-.3-.4-.5-.7,0-.4.3-.9,0-1.4,0,.2,0,.3-.1.4,0,0-.2,0-.3-.2,0,.2,0,.4,0,.6-.2,0-.5.1-.8.2,0,.2-.2.5-.3.7l.2.2h.6c.1.6,0,1-.3,1.5,0,0-.2.1-.4.3,0,.2.2.5.3.8-.1,0-.2,0-.3-.1-.2-.2-.4-.4-.6-.6-.1.2-.2.3-.3.4.2,0,.3,0,.5,0-.2.1-.3.2-.4.2.1.3.3.5.4.8-.2.5-.6.8-1.1.8,0,.2,0,.4.2.6v.4c-.4.3-.5-.4-.9-.2,0-.2,0-.3,0-.4,0,0-.1.1-.2.1-.1-.2-.2-.3-.4-.5h-.4c-.2.2-.4.4-.7.7v.5s0,0,0,0c-.2-.4-.4-.8-.5-1.2,0,0,0,0-.1,0-.1-.2-.2-.3-.4-.5-.2,0-.4,0-.5,0-.2,0-.3-.3-.5,0-.1-.2-.2-.3-.3-.5h-.3c0,0,0-.1,0-.2-.3-.5-.5-1-.4-1.7,0-.3,0-.6-.1-1,0-.3,0-.6,0-.9v-.3c.2,0,.2-.1.3-.3,0,0,.3,0,.4-.2.1,0,.2-.1.3-.1.1,0,.3,0,.5.1-.1-.2-.2-.3-.3-.5,0,0,0,0,.2-.2.2,0,.3.5,0,1,.1,0,.2,0,.3-.1,0-.1.2-.2.2-.4,0,0-.1-.1-.2-.2,0-.1.1-.2.2-.4,0,.1.2.2.3.5,0-.4-.2-.5-.4-.6.2-.1.3-.2.4-.3,0,0,0-.1-.1-.2.1-.2.4-.3.6-.4,0-.3.4-.2.6-.4.3.2.2.5,0,.9.4-.3.9-.3,1.3-.5.2.2.3.3.5.5,0-.2,0-.2.1-.3,0,0,.2,0,.3,0,0-.1,0-.3,0-.4h0Z"/>
        <path class="cls-1" d="M18.1,6.7c0,0,0,0-.1,0,0,0,0,0-.1,0v-.4c.2,0,.3,0,.5,0,0-.1,0-.3,0-.5.3-.2.7-.3,1.1-.3.3.3.7.5,1,.8h.7c.1.1.2.2.4.4,0,0,.1-.1.2-.2,0-.1-.1-.2-.2-.4,0,0,0,0-.2.2,0-.2,0-.3,0-.4,0-.1.2-.2.4-.2.2.3.4.5.7.7,0,0,0,.3,0,.5,0,0-.1.1-.2.3.1,0,.2,0,.4,0,0-.1.1-.2.2-.4,0,0-.1-.2-.2-.3,0,0,.1-.1.2-.2,0,0,0,0,.1.1,0,0,.1,0,.2-.1,0,.3,0,.6-.1.9.1,0,.2.2.3.2,0,0,0-.2,0-.2,0-.1-.1-.3-.2-.4.1-.1.2-.2.2-.2.2,0,.3,0,.4.1.1.3.3.6.5.9,0,0,0,0,0,0,0,.1.2.2.3.3,0,.2-.2.3-.2.5-.2-.1-.4-.3-.5-.4.1-.1.2-.3.3-.4-.1-.2-.1-.5-.5-.5,0,0,0,.2,0,.2,0,0,0,.2,0,.3,0,0-.2,0-.3,0,0,0,0,0,.1.2,0,0-.1,0-.2.1,0,0-.1,0-.2-.1-.2.2-.4.4-.5.5,0,.4.5.5.7.8v.3c.1-.2.2-.3.4-.6v-.7h.3c0,.2.2.3.2.5,0,0,0,0,.2-.1,0,.2,0,.3,0,.5,0,0,.2.1.2.2v.3c0,0-.1.2-.2.2-.1,0-.2-.1-.3-.1-.2.3,0,.4.3.6h-.5c-.2.2-.4.4-.6.6,0,.3-.2.5-.4.7v.7c-.1-.3-.2-.4-.3-.7-.4.1-.7.2-1,.3v.8c0,0,.1.1.2.2.2-.1.4-.3.6-.4,0,.2,0,.3-.1.5.1,0,.3.2.4.3,0,.1-.1.3-.2.4,0,0,0-.2,0-.3-.4-.2-.9-.3-1.4-.5,0-.5-.4-.7-.6-1.1,0-.1-.4-.6-.5-.8-.1-.3-.2-.6,0-1,0-.1,0-.4.1-.5,0,0-.2-.1-.2-.2,0-.1.1-.3,0-.3-.2-.4-.2-.8-.4-1.1-.1-.3-.4-.4-.7-.4,0,0-.1,0-.2.1,0,0,0,0-.1-.1,0,.1-.2.3-.3.4,0,0-.1-.2-.2-.3,0,0-.2-.1-.3-.2,0,0-.1-.2-.2-.2.2-.2.5-.4.8-.7h0Z"/>
        <path class="cls-1" d="M23.2,19.1c0-.5-.1-1.1,0-1.6.1-.4,0-.9,0-1.4-.5-.3-.7-.8-.7-1.2.2-.5.3-.8.4-1.2.2,0,.5,0,.7.1,0,0,0,0,.1,0,.3.2.5.4.8.6v.3c.2,0,.4.1.6.2,0,.2,0,.4-.1.6-.1.2-.1.4-.2.7-.1.1-.3.3-.4.4-.1.4-.1.8-.6.9,0,0,0,0,.1.2-.2.2-.4.3-.4.4-.2.5-.3.8-.4,1.1h0Z"/>
        <path class="cls-1" d="M16.3,17.1c0,.6-.5.9-.6,1.4,0,0-.2,0-.3.1-.1,0-.3,0-.5-.1v-.7c0,0-.1.1-.2.2,0,0-.1-.2-.2-.2-.6-.1-1,0-1.4.3v-1.2c.3-.3.8-.2,1-.7h.4c0,0,0-.1,0-.2h.5c0,.1-.1.2-.2.3.2,0,.3.2.5.3,0-.2,0-.4.1-.7.2.5.4,1,.7,1.3h0Z"/>
      </g>
    </g>
  </g>
</svg>