<?xml version="1.0" encoding="UTF-8"?>
<svg xmlns="http://www.w3.org/2000/svg" version="1.1" viewBox="0 0 94.9 26">
  <defs>
    <style>
      .cls-1 {
        fill: #fff;
      }
    </style>
  </defs>
  <!-- Generator: Adobe Illustrator 28.7.1, SVG Export Plug-In . SVG Version: 1.2.0 Build 142)  -->
  <g>
    <g id="Layer_1">
      <g id="Layer_1-2" data-name="Layer_1">
        <g>
          <path d="M11.4,23.8h-.5c-.3,0-.6,0-.9-.1-.2-.1-.6,0-.8-.2-1.4,0-2.5-.8-3.7-1.4-.4-.2-.8-.6-1.2-.8-.4-.3-.8-.7-1.2-1.1-.9-1-1.7-2.1-2.3-3.8-.3-.3-.3-.7-.4-1,0-.3-.2-.7-.3-1.1,0-.4,0-.9,0-1.4v-1.3c0-.7.2-1.3.3-1.9.2-.6.4-1.2.6-1.8.3-.8.7-1.5,1.2-2.2.6-.7,1.1-1.5,1.9-2,.4-.3.7-.6,1.1-.8.7-.5,1.5-.8,2.3-1.1.6-.2,1.3-.3,1.8-.5.9,0,1.8-.3,2.7-.1.4,0,.8,0,1.2.1s.8.2,1.2.3c.4.1.8.2,1.1.3.4.1.7.3,1.1.5.6.4,1.3.8,1.8,1.3.2.2.5.4.7.6,1.1,1.1,1.9,2.3,2.5,3.7.3.7.4,1.3.6,2,.1.5.1,1,.2,1.5v1.6c-.1.8-.2,1.6-.5,2.4-.3.9-.7,1.7-1.1,2.5-.2.4-.6.8-.8,1.3-.3.5-.8,1-1.3,1.4-.6.6-1.3,1-2,1.5s-1.5.8-2.4,1c-.3,0-.6.1-.9.2-.2,0-.4,0-.6.1-.2,0-.4,0-.5.1h-1.2l.4.2ZM9.4,5.3v.4h-.3c0,0,0,.2-.1.3-.2-.2-.3-.4-.5-.5-.4,0-.9.2-1.3.5.1-.4.2-.6,0-.9-.2.2-.5,0-.6.4-.2,0-.5.2-.6.4,0,0,0,.2.1.2-.1,0-.2.2-.4.3.3,0,.4.2.4.6-.1-.2-.2-.3-.3-.5,0,.2-.2.3-.2.4l.2.2c0,0-.1.3-.2.4,0,0-.2,0-.3,0,.2-.4.1-.9,0-1,0,0-.1,0-.2.2,0,0,.2.3.3.5-.2,0-.4,0-.5,0s-.2,0-.3,0c0,0-.3,0-.4.2,0,0,0,.2-.3.3v1.2c0,.3,0,.6,0,1,0,.6,0,1.1.4,1.7v.2h.3c0,.1.2.3.3.5.2-.3.3,0,.5,0h.5c.1.2.3.4.4.5h.1c.2.4.4.8.5,1.2h0v-.5l.7-.7h.4c.1.2.2.3.4.5h.2v.3c.4-.2.5.5.9.2v-.4c-.1-.2-.2-.4-.2-.6.6,0,1-.2,1.1-.8-.1-.2-.2-.4-.4-.8,0,0,.2,0,.4-.2h-.5c0-.1.2-.3.3-.4l.6.6s.1,0,.3.1c-.1-.3-.2-.5-.3-.8.2-.1.3-.2.4-.3.3-.5.4-1,.3-1.5h-.6l-.2-.2c0-.3.2-.5.3-.7.3,0,.5-.2.8-.2v-.6c.1,0,.2,0,.3.2,0,0,0-.3.1-.4.2.6,0,1,0,1.4.2.3.3.5.5.7,0-.3,0-.5.1-.7,0-.2-.2-.5-.3-.7.1,0,.2-.3.3-.4h0c.1-.3.2-.5.3-.8-.3,0-.2-.5-.4-.7h.5v-.2c-.1,0-.1-.2-.1-.4-.1,0-.2,0-.3.2-.5-.2-.9,0-1.3,0,0,0,.1,0,.2.2-.2.2-.5,0-.8.2,0,0-.2-.2-.3-.4-.3.3-.6,0-.9,0h-.1c0,0-.2,0-.3,0h0ZM15,6.7c-.3.3-.5.5-.8.7,0,0,.1.2.2.2,0,0,.2,0,.3.2,0,0,.1.2.2.3,0-.2.2-.3.3-.4,0,0,.1,0,.1,0h.2c.3,0,.5,0,.7.3.2.4.2.8.4,1.1v.3s.2.1.2.2c-.2.1,0,.4-.1.5-.2.3-.1.6,0,1,0,.2.4.7.5.8.2.4.6.6.6,1.1.5.2,1,.3,1.4.5v.3c0-.1.1-.2.2-.4-.1,0-.3-.2-.4-.3,0-.1,0-.3.1-.5-.2.2-.4.3-.6.4,0,0-.1-.1-.2-.2v-.8c.3,0,.6-.2,1-.3,0,.2.2.4.3.7v-.7c.2-.2.5-.4.4-.7.2-.2.4-.4.6-.6h.5c-.2-.2-.4-.3-.3-.6,0,0,.2,0,.3.1,0,0,.1-.2.2-.2v-.3s-.2-.1-.2-.2v-.5s-.1.1-.2.1c0-.2-.2-.4-.2-.5h-.3v.7c-.1.2-.3.4-.4.6v-.3c-.2-.3-.7-.4-.7-.8.2-.2.4-.4.5-.5,0,0,.1,0,.2.1,0,0,.2,0,.2-.1,0,0-.1-.1-.1-.2h.3v-.5c.3,0,.3.3.5.5-.1.1-.2.3-.3.4.1,0,.3.2.5.4,0-.2.2-.3.2-.5s-.2-.2-.3-.3h0c-.2-.3-.3-.6-.5-.9-.1,0-.3,0-.4,0l-.2.2c0,0,.1.2.2.4v.2s-.1,0-.3-.2c0-.3,0-.5.1-.9,0,0-.1,0-.2,0h-.1c0,0-.1,0-.2,0,0,0,.1.2.2.3,0,0-.2.3-.2.4h-.4c.1,0,.2-.2.2-.3v-.5c-.2-.3-.4-.5-.7-.7-.1,0-.3,0-.4.2v.4c.1,0,.2,0,.2-.2,0,0,.1.2.2.4,0,0-.2,0-.2.2-.2-.2-.3-.3-.4-.4h-.7c-.3-.3-.7-.5-1-.8-.4,0-.8,0-1.1.3v.5h-.5v.4h.2l.2-.3ZM20.1,19.1c.1-.3.2-.7.4-1.1,0,0,.3-.2.4-.4,0,0,0-.1-.1-.2.4-.1.5-.5.6-.9l.4-.4c0-.3.1-.5.2-.7s.2-.4.1-.6c-.2,0-.4-.2-.6-.2v-.3c-.3-.2-.5-.4-.8-.6h-.1c-.3,0-.5,0-.7-.1-.1.4-.3.7-.4,1.2,0,.4.2.9.7,1.2v1.4c-.2.6,0,1.1,0,1.6h-.1ZM13.2,17.1c-.4-.3-.5-.8-.7-1.3,0,.3,0,.5-.1.7-.2,0-.3-.2-.5-.3,0,0,.1-.2.2-.3h-.5v.2h-.4c-.2.5-.7.4-1,.7v1.2c.5-.2.9-.4,1.4-.3,0,0,.1.1.2.2,0,0,.1,0,.2-.2v.7c.2,0,.4.1.5.1s.2,0,.3-.1c0-.5.6-.8.6-1.4h-.2Z"/>
          <path d="M81.5,20V5h6c1.6,0,3.1.6,4.4,1.5.8.6,1.4,1.3,2,2.2.4.8.6,1.6.9,2.4v.2c0,.3,0,.6,0,.9v1.2c0,.7-.2,1.4-.5,2-.4,1.1-1.1,2-2,2.8-.6.5-1.3.9-2,1.2-.4,0-.6.4-1,.3-.2.3-.6,0-.9.2-.3.1-.7,0-1.1,0-1,.2-1.9,0-2.9.1h-3ZM83.6,6.9v11.2h3.4c.8,0,1.5-.1,2.2-.4,1.5-.6,2.5-1.7,3-3.3,0-.2.2-.4,0-.7,0-.2.2-.4,0-.6v-.7c0-.9-.3-1.7-.6-2.6-.4-.9-1.1-1.5-1.9-2.1-.8-.5-1.7-.7-2.7-.8h-3.8.2Z"/>
          <path d="M54.2,12.3v.5c0,1.5-.5,2.8-1.3,4-.6.9-1.4,1.6-2.3,2.2l-1.2.6c-.4.2-.8.2-1.2.4h0c-.7,0-1.3.2-2,.1-.3,0-.7-.2-1-.2s-.6,0-.9-.2c-.3-.1-.6-.2-.9-.3-.7-.3-1.3-.7-1.9-1.2-.6-.4-1-1-1.4-1.6-.4-.7-.7-1.4-1-2.2-.3-1.1-.3-2.1-.2-3.2,0-.6.3-1.2.5-1.7.2-.6.5-1.1.8-1.6.9-1.3,2-2.2,3.5-2.8.6-.3,1.3-.5,2-.5s.6-.2.9,0c.5,0,.9.2,1.3.2s.8,0,1.2.3c.4.2.8.2,1.2.5s.8.6,1.3.9.8.8,1.2,1.2c.3.4.6.9.8,1.3.3.5.4,1.1.6,1.7.2.5,0,1.1,0,1.6h0ZM46.3,18.3c.5,0,.8,0,1.1-.1.7,0,1.2-.3,1.8-.5.7-.3,1.2-.8,1.7-1.4.8-1.1,1.2-2.6,1.2-3.9s0-.5,0-.8c0-.3,0-.6-.2-.9-.4-1.3-1.4-2.6-2.6-3.2-.7-.4-1.6-.6-2.4-.7-.5,0-1.1,0-1.6.2-.7.2-1.3.5-1.8.9-.6.4-1,.9-1.4,1.5-.6,1-.9,2.1-1,3.3,0,.4,0,.7,0,1,0,.5.2,1,.4,1.4.4.9.9,1.6,1.7,2.3,1,.8,2.1,1.1,3.2,1.2h0v-.3Z"/>
          <path d="M55.5,5h10.9v1.9h-8.8v4.6h7.9v1.9h-7.8c0,.6,0,3.2,0,4.7h8.9v1.9l-.2.2h-10.9V5h0Z"/>
          <path d="M79.3,16.2c.5.5.9.9,1.3,1.3-.7.9-1.6,1.5-2.6,2-.9.4-1.8.7-2.7.7h-1.3c-.9,0-1.7-.2-2.4-.6-.4-.2-.7-.4-1.1-.6-.5-.3-.8-.7-1.2-1.1-.6-.6-1.1-1.3-1.4-2.1-.2-.6-.4-1.2-.5-1.8-.2-.6,0-1.3,0-1.9,0-1.1.3-2.2.8-3.2s1.1-1.8,1.8-2.5c.7-.7,1.6-1.1,2.5-1.5.6,0,1.1-.3,1.8-.3h1.3c1.5,0,2.8.5,4,1.3.2.2.5.4.7.6s.3.2.5.4c-.5.5-.9,1.1-1.4,1.6-.6-.7-1.4-1.1-2.2-1.6-.3-.2-.7,0-.9-.4-.5,0-1.1-.2-1.6,0-.6,0-1.3.2-1.9.5-.5.2-.9.5-1.3.9-.6.6-1.1,1.2-1.4,2-.2.4-.3.9-.4,1.3,0,.5,0,1,0,1.6,0,.4,0,.7.2,1.1,0,.3.2.6.3.9.3.9.9,1.6,1.6,2.2s1.5,1.1,2.5,1.1c.3.2.7.1,1.1.1,1.1,0,2.2-.4,3.1-1,.3-.2.5-.4.8-.6.2-.1.4-.3.6-.4h-.4Z"/>
          <path d="M24.3,6.7V1.4c.7,1,1.3,2,1.9,3,.4.7.8,1.4,1.3,2.2.3.6.7,1.1,1,1.7.2.3.4.7.6,1,.3.4.4.9.4,1.5v4.5c-1.8,2.9-3.5,5.7-5.3,8.5h0v-5.2c.7-1,1.3-2,1.9-3,.4-.7.8-1.4,1.3-2.2.2-.3.5-.6.4-.9-1.2-1.9-2.3-3.8-3.5-5.6h0v-.2Z"/>
          <path d="M35,9.7v.2c0,0,0,0,0,.2v5.2c-1.7,2.8-3.4,5.5-5.2,8.4v-5.4c1.2-2,2.4-3.9,3.6-5.9-.5-.8-.9-1.5-1.4-2.2-.4-.6-.8-1.3-1.2-1.9-.3-.4-.5-.9-.8-1.3-.2-.3-.3-.7-.3-1V1.3c.4.7.7,1.2,1.1,1.7.5.8,1,1.7,1.5,2.5.4.7.8,1.4,1.3,2,.4.6.7,1.1,1.1,1.7,0,.1.2.3.3.5h0Z"/>
          <path class="cls-1" d="M9.4,5.3c.1,0,.2,0,.3.2h.1c.3,0,.6.2.9,0,.1,0,.2.2.3.4.2-.3.5,0,.8-.2l-.2-.2h1.3s.1,0,.3-.2v.4s0,0,.1.2h-.5c.2.2,0,.5.4.7,0,.3-.2.5-.3.8h-.1c0,0-.2.2-.3.4,0,.2.2.5.3.7,0,.2,0,.4-.1.7-.2-.2-.3-.4-.5-.7,0-.4.3-.9,0-1.4,0,.2,0,.3-.1.4,0,0-.2,0-.3-.2v.6c-.2,0-.5,0-.8.2,0,.2-.2.5-.3.7l.2.2h.6c.1.6,0,1-.3,1.5,0,0-.2.1-.4.3,0,.2.2.5.3.8-.1,0-.2,0-.3-.1l-.6-.6c-.1.2-.2.3-.3.4h.5c-.2.1-.3.2-.4.2.1.3.3.5.4.8-.2.5-.6.8-1.1.8,0,.2,0,.4.2.6v.4c-.4.3-.5-.4-.9-.2v-.4s-.1.1-.2.1c-.1-.2-.2-.3-.4-.5h-.4l-.7.7v.5h0c-.2-.4-.4-.8-.5-1.2h-.1c-.1-.2-.2-.3-.4-.5h-.5c-.2,0-.3-.3-.5,0,0-.2-.2-.3-.3-.5h-.3v-.2c-.3-.5-.5-1-.4-1.7,0-.3,0-.6,0-1v-1.2c.2,0,.2,0,.3-.3,0,0,.3,0,.4-.2,0,0,.2,0,.3,0s.3,0,.5,0c-.1-.2-.2-.3-.3-.5l.2-.2c.2,0,.3.5,0,1,.1,0,.2,0,.3,0,0,0,.2-.2.2-.4,0,0-.1,0-.2-.2,0,0,.1-.2.2-.4,0,0,.2.2.3.5,0-.4-.2-.5-.4-.6.2,0,.3-.2.4-.3,0,0,0,0-.1-.2.1-.2.4-.3.6-.4,0-.3.4-.2.6-.4.3.2.2.5,0,.9.4-.3.9-.3,1.3-.5l.5.5q0-.2.1-.3h.3v-.4h.1Z"/>
          <path class="cls-1" d="M15,6.7h-.2v-.4h.5v-.5c.3-.2.7-.3,1.1-.3.3.3.7.5,1,.8h.7c.1,0,.2.2.4.4l.2-.2c0,0-.1-.2-.2-.4l-.2.2v-.4c0,0,.2-.2.4-.2.2.3.4.5.7.7v.5s-.1,0-.2.3h.4c0,0,.1-.2.2-.4,0,0-.1-.2-.2-.3l.2-.2h.1c0,0,.1,0,.2,0,0,.3,0,.6-.1.9.1,0,.2.2.3.2v-.2c0,0-.1-.3-.2-.4l.2-.2c.2,0,.3,0,.4,0,.1.3.3.6.5.9h0c0,0,.2.2.3.3,0,.2-.2.3-.2.5-.2-.1-.4-.3-.5-.4.1,0,.2-.3.3-.4-.1-.2-.1-.5-.5-.5v.5h-.3v.2c.1,0,0,0-.1,0,0,0-.1,0-.2,0-.2.2-.4.4-.5.5,0,.4.5.5.7.8v.3c.1-.2.2-.3.4-.6v-.7h.3c0,.2.2.3.2.5h.2v.4s.2.1.2.2v.3s-.1.2-.2.2-.2-.1-.3-.1c-.2.3,0,.4.3.6h-.5c-.2.2-.4.4-.6.6,0,.3-.2.5-.4.7v.7c-.1-.3-.2-.4-.3-.7-.4.1-.7.2-1,.3v.8s.1.1.2.2c.2-.1.4-.3.6-.4,0,.2,0,.3-.1.5.1,0,.3.2.4.3,0,.1-.1.3-.2.4v-.3c-.4-.2-.9-.3-1.4-.5,0-.5-.4-.7-.6-1.1,0-.1-.4-.6-.5-.8-.1-.3-.2-.6,0-1,0-.1,0-.4.1-.5,0,0-.2-.1-.2-.2s.1-.3,0-.3c-.2-.4-.2-.8-.4-1.1-.1-.3-.4-.4-.7-.4,0,0-.1,0-.2,0h-.1s-.2.2-.3.3c0,0-.1-.2-.2-.3,0,0-.2,0-.3-.2,0,0-.1-.2-.2-.2.2-.2.5-.4.8-.7h0l-.2.3Z"/>
          <path class="cls-1" d="M20.1,19.1c0-.5-.1-1.1,0-1.6.1-.4,0-.9,0-1.4-.5-.3-.7-.8-.7-1.2.2-.5.3-.8.4-1.2.2,0,.5,0,.7.1h.1c.3.2.5.4.8.6v.3c.2,0,.4.1.6.2,0,.2,0,.4-.1.6-.1.2-.1.4-.2.7l-.4.4c-.1.4-.1.8-.6.9v.2c-.1.2-.3.3-.3.4-.2.5-.3.8-.4,1.1h.1Z"/>
          <path class="cls-1" d="M13.2,17.1c0,.6-.5.9-.6,1.4,0,0-.2,0-.3.1-.1,0-.3,0-.5-.1v-.7s-.1.1-.2.2c0,0-.1-.2-.2-.2-.6-.1-1,0-1.4.3v-1.2c.3-.3.8-.2,1-.7h.4v-.2h.5c0,0-.1.2-.2.3.2,0,.3.2.5.3,0-.2,0-.4.1-.7.2.5.4,1,.7,1.3h.2Z"/>
        </g>
      </g>
    </g>
  </g>
</svg>